<?xml version="1.0" encoding="UTF-8"?>
<!DOCTYPE svg PUBLIC "-//W3C//DTD SVG 1.1//EN" "http://www.w3.org/Graphics/SVG/1.1/DTD/svg11.dtd">
<svg version="1.1" xmlns="http://www.w3.org/2000/svg" xmlns:xlink="http://www.w3.org/1999/xlink" x="0px" y="0px" width="50px" height="24px" viewBox="0 0 50 24" enable-background="new 0 0 50 24" xml:space="preserve" aria-labelledby="title desc" aria-describedby="desc" role="img">
	<!-- M. Providenti 2018 -->
	<title id="title">Closed</title>
	<desc id="desc">Closed</desc>

  <g id="layer2" style="display:inline">
    <rect style="fill:#8dc63f;fill-opacity:1;stroke-width:1.06730592" id="rect819" width="6.0920286" height="17.757616" x="14.032699" y="25.001827" transform="rotate(-45)"/>
    <rect style="fill:#8dc63f;fill-opacity:1;stroke-width:1.06730592" id="rect819-2" width="6.0920286" height="17.757616" x="-37.056267" y="8.1999063" transform="rotate(-135)"/>
    <path style="fill:#555555;fill-opacity:1;stroke-width:0.06480882" d="m 38.13669,18.268543 -2.016377,-2.016377 -2.062204,2.062204 -2.062204,2.062204 -2.130943,-2.130943 -2.130945,-2.130944 2.062204,-2.062204 2.062205,-2.062205 -2.108031,-2.1080301 -2.108031,-2.1080306 2.130944,-2.1309434 2.130944,-2.130944 2.10803,2.1080305 2.108031,2.1080307 2.062204,-2.0622041 2.062203,-2.0622034 2.130945,2.1309442 2.130943,2.1309433 -2.062203,2.0622034 -2.062204,2.0622045 2.016377,2.016377 2.016377,2.016377 -2.130944,2.130944 -2.130943,2.130943 z" id="path826"/>
  </g>
</svg>